<?xml version="1.0" encoding="UTF-8" standalone="no"?><svg xmlns="http://www.w3.org/2000/svg" xmlns:xlink="http://www.w3.org/1999/xlink" contentScriptType="application/ecmascript" contentStyleType="text/css" height="513px" preserveAspectRatio="none" style="width:670px;height:513px;" version="1.1" viewBox="0 0 670 513" width="670px" zoomAndPan="magnify"><defs><filter height="300%" id="fthf83jh5zjau" width="300%" x="-1" y="-1"><feGaussianBlur result="blurOut" stdDeviation="2.0"/><feColorMatrix in="blurOut" result="blurOut2" type="matrix" values="0 0 0 0 0 0 0 0 0 0 0 0 0 0 0 0 0 0 .4 0"/><feOffset dx="4.0" dy="4.0" in="blurOut2" result="blurOut3"/><feBlend in="SourceGraphic" in2="blurOut3" mode="normal"/></filter></defs><g><!--MD5=[b6dcce5e5ef3c84b0b048d11301373dd]
class Game--><rect fill="#FEFECE" filter="url(#fthf83jh5zjau)" height="137.6328" id="Game" style="stroke: #A80036; stroke-width: 1.5;" width="111" x="16" y="180"/><ellipse cx="50.35" cy="196" fill="#ADD1B2" rx="11" ry="11" style="stroke: #A80036; stroke-width: 1.0;"/><path d="M52.6938,191.6719 L52.8656,191.75 C53.0844,191.4375 53.2875,191.3438 53.5844,191.3438 C53.8813,191.3438 54.1625,191.4844 54.3188,191.75 C54.4125,191.9063 54.4281,192.0313 54.4281,192.4688 L54.4281,193.8906 C54.4281,194.3125 54.3969,194.5 54.2875,194.6563 C54.1156,194.875 53.85,195.0156 53.5844,195.0156 C53.3656,195.0156 53.1313,194.9063 52.9906,194.7656 C52.85,194.6406 52.8188,194.5156 52.7563,194.1094 C52.6625,193.7031 52.4906,193.4844 52.0063,193.2031 C51.5375,192.9531 50.9281,192.7969 50.35,192.7969 C48.6156,192.7969 47.3656,194.1094 47.3656,195.8906 L47.3656,196.9844 C47.3656,198.6875 48.6625,199.7813 50.7094,199.7813 C51.475,199.7813 52.1625,199.6563 52.5844,199.3906 C52.7719,199.2969 52.7719,199.2969 53.225,198.8125 C53.4125,198.625 53.6156,198.5469 53.8344,198.5469 C54.3031,198.5469 54.6938,198.9375 54.6938,199.3906 C54.6938,199.7813 54.3656,200.2344 53.7875,200.6406 C53.0375,201.1875 51.8813,201.4844 50.6625,201.4844 C47.7719,201.4844 45.6625,199.5938 45.6625,197.0156 L45.6625,195.8906 C45.6625,193.1719 47.6625,191.0938 50.2875,191.0938 C51.1625,191.0938 51.7563,191.2344 52.6938,191.6719 Z "/><text fill="#000000" font-family="sans-serif" font-size="12" lengthAdjust="spacingAndGlyphs" textLength="36" x="68.65" y="200.1543">Game</text><line style="stroke: #A80036; stroke-width: 1.5;" x1="17" x2="126" y1="212" y2="212"/><ellipse cx="27" cy="223" fill="none" rx="3" ry="3" style="stroke: #038048; stroke-width: 1.0;"/><text fill="#000000" font-family="sans-serif" font-size="11" lengthAdjust="spacingAndGlyphs" textLength="85" x="36" y="226.2104">Player1: Player</text><ellipse cx="27" cy="235.8047" fill="none" rx="3" ry="3" style="stroke: #038048; stroke-width: 1.0;"/><text fill="#000000" font-family="sans-serif" font-size="11" lengthAdjust="spacingAndGlyphs" textLength="85" x="36" y="239.0151">Player2: Player</text><rect fill="none" height="6" style="stroke: #C82930; stroke-width: 1.0;" width="6" x="24" y="245.6094"/><text fill="#000000" font-family="sans-serif" font-size="11" lengthAdjust="spacingAndGlyphs" textLength="48" x="36" y="251.8198">Turn: Int</text><line style="stroke: #A80036; stroke-width: 1.5;" x1="17" x2="126" y1="258.4141" y2="258.4141"/><ellipse cx="27" cy="269.4141" fill="#84BE84" rx="3" ry="3" style="stroke: #038048; stroke-width: 1.0;"/><text fill="#000000" font-family="sans-serif" font-size="11" lengthAdjust="spacingAndGlyphs" textLength="70" x="36" y="272.6245">StartGame()</text><ellipse cx="27" cy="282.2188" fill="#84BE84" rx="3" ry="3" style="stroke: #038048; stroke-width: 1.0;"/><text fill="#000000" font-family="sans-serif" font-size="11" lengthAdjust="spacingAndGlyphs" textLength="82" x="36" y="285.4292">DisplayScore()</text><ellipse cx="27" cy="295.0234" fill="#84BE84" rx="3" ry="3" style="stroke: #038048; stroke-width: 1.0;"/><text fill="#000000" font-family="sans-serif" font-size="11" lengthAdjust="spacingAndGlyphs" textLength="57" x="36" y="298.2339">PlayTurn()</text><rect fill="#F24D5C" height="6" style="stroke: #C82930; stroke-width: 1.0;" width="6" x="24" y="304.8281"/><text fill="#000000" font-family="sans-serif" font-size="11" lengthAdjust="spacingAndGlyphs" textLength="81" x="36" y="311.0386">UpdateScore()</text><!--MD5=[9563755d011c5cec7ec66dc53565a59e]
class Board--><rect fill="#FEFECE" filter="url(#fthf83jh5zjau)" height="124.8281" id="Board" style="stroke: #A80036; stroke-width: 1.5;" width="159" x="172" y="378"/><ellipse cx="228.75" cy="394" fill="#ADD1B2" rx="11" ry="11" style="stroke: #A80036; stroke-width: 1.0;"/><path d="M231.0938,389.6719 L231.2656,389.75 C231.4844,389.4375 231.6875,389.3438 231.9844,389.3438 C232.2813,389.3438 232.5625,389.4844 232.7188,389.75 C232.8125,389.9063 232.8281,390.0313 232.8281,390.4688 L232.8281,391.8906 C232.8281,392.3125 232.7969,392.5 232.6875,392.6563 C232.5156,392.875 232.25,393.0156 231.9844,393.0156 C231.7656,393.0156 231.5313,392.9063 231.3906,392.7656 C231.25,392.6406 231.2188,392.5156 231.1563,392.1094 C231.0625,391.7031 230.8906,391.4844 230.4063,391.2031 C229.9375,390.9531 229.3281,390.7969 228.75,390.7969 C227.0156,390.7969 225.7656,392.1094 225.7656,393.8906 L225.7656,394.9844 C225.7656,396.6875 227.0625,397.7813 229.1094,397.7813 C229.875,397.7813 230.5625,397.6563 230.9844,397.3906 C231.1719,397.2969 231.1719,397.2969 231.625,396.8125 C231.8125,396.625 232.0156,396.5469 232.2344,396.5469 C232.7031,396.5469 233.0938,396.9375 233.0938,397.3906 C233.0938,397.7813 232.7656,398.2344 232.1875,398.6406 C231.4375,399.1875 230.2813,399.4844 229.0625,399.4844 C226.1719,399.4844 224.0625,397.5938 224.0625,395.0156 L224.0625,393.8906 C224.0625,391.1719 226.0625,389.0938 228.6875,389.0938 C229.5625,389.0938 230.1563,389.2344 231.0938,389.6719 Z "/><text fill="#000000" font-family="sans-serif" font-size="12" lengthAdjust="spacingAndGlyphs" textLength="37" x="249.25" y="398.1543">Board</text><line style="stroke: #A80036; stroke-width: 1.5;" x1="173" x2="330" y1="410" y2="410"/><ellipse cx="183" cy="421" fill="none" rx="3" ry="3" style="stroke: #038048; stroke-width: 1.0;"/><text fill="#000000" font-family="sans-serif" font-size="11" lengthAdjust="spacingAndGlyphs" textLength="86" x="192" y="424.2104">BoardGrid: List</text><ellipse cx="183" cy="433.8047" fill="none" rx="3" ry="3" style="stroke: #038048; stroke-width: 1.0;"/><text fill="#000000" font-family="sans-serif" font-size="11" lengthAdjust="spacingAndGlyphs" textLength="81" x="192" y="437.0151">Fleet: Fleet [1]</text><line style="stroke: #A80036; stroke-width: 1.5;" x1="173" x2="330" y1="443.6094" y2="443.6094"/><ellipse cx="183" cy="454.6094" fill="#84BE84" rx="3" ry="3" style="stroke: #038048; stroke-width: 1.0;"/><text fill="#000000" font-family="sans-serif" font-size="11" lengthAdjust="spacingAndGlyphs" textLength="68" x="192" y="457.8198">PrintBoard()</text><ellipse cx="183" cy="467.4141" fill="#84BE84" rx="3" ry="3" style="stroke: #038048; stroke-width: 1.0;"/><text fill="#000000" font-family="sans-serif" font-size="11" lengthAdjust="spacingAndGlyphs" textLength="82" x="192" y="470.6245">UpdateBoard()</text><ellipse cx="183" cy="480.2188" fill="#84BE84" rx="3" ry="3" style="stroke: #038048; stroke-width: 1.0;"/><text fill="#000000" font-family="sans-serif" font-size="11" lengthAdjust="spacingAndGlyphs" textLength="70" x="192" y="483.4292">PlaceShips()</text><ellipse cx="183" cy="493.0234" fill="#84BE84" rx="3" ry="3" style="stroke: #038048; stroke-width: 1.0;"/><text fill="#000000" font-family="sans-serif" font-size="11" lengthAdjust="spacingAndGlyphs" textLength="133" x="192" y="496.2339">CheckMove(moveTuple)</text><!--MD5=[2cb47ba637a0d19583e6199456f6ad0b]
class Player--><rect fill="#FEFECE" filter="url(#fthf83jh5zjau)" height="124.8281" id="Player" style="stroke: #A80036; stroke-width: 1.5;" width="131" x="6" y="378"/><ellipse cx="48.45" cy="394" fill="#ADD1B2" rx="11" ry="11" style="stroke: #A80036; stroke-width: 1.0;"/><path d="M50.7938,389.6719 L50.9656,389.75 C51.1844,389.4375 51.3875,389.3438 51.6844,389.3438 C51.9813,389.3438 52.2625,389.4844 52.4188,389.75 C52.5125,389.9063 52.5281,390.0313 52.5281,390.4688 L52.5281,391.8906 C52.5281,392.3125 52.4969,392.5 52.3875,392.6563 C52.2156,392.875 51.95,393.0156 51.6844,393.0156 C51.4656,393.0156 51.2313,392.9063 51.0906,392.7656 C50.95,392.6406 50.9188,392.5156 50.8563,392.1094 C50.7625,391.7031 50.5906,391.4844 50.1063,391.2031 C49.6375,390.9531 49.0281,390.7969 48.45,390.7969 C46.7156,390.7969 45.4656,392.1094 45.4656,393.8906 L45.4656,394.9844 C45.4656,396.6875 46.7625,397.7813 48.8094,397.7813 C49.575,397.7813 50.2625,397.6563 50.6844,397.3906 C50.8719,397.2969 50.8719,397.2969 51.325,396.8125 C51.5125,396.625 51.7156,396.5469 51.9344,396.5469 C52.4031,396.5469 52.7938,396.9375 52.7938,397.3906 C52.7938,397.7813 52.4656,398.2344 51.8875,398.6406 C51.1375,399.1875 49.9813,399.4844 48.7625,399.4844 C45.8719,399.4844 43.7625,397.5938 43.7625,395.0156 L43.7625,393.8906 C43.7625,391.1719 45.7625,389.0938 48.3875,389.0938 C49.2625,389.0938 49.8563,389.2344 50.7938,389.6719 Z "/><text fill="#000000" font-family="sans-serif" font-size="12" lengthAdjust="spacingAndGlyphs" textLength="38" x="68.55" y="398.1543">Player</text><line style="stroke: #A80036; stroke-width: 1.5;" x1="7" x2="136" y1="410" y2="410"/><ellipse cx="17" cy="421" fill="none" rx="3" ry="3" style="stroke: #038048; stroke-width: 1.0;"/><text fill="#000000" font-family="sans-serif" font-size="11" lengthAdjust="spacingAndGlyphs" textLength="55" x="26" y="424.2104">Score: Int</text><ellipse cx="17" cy="433.8047" fill="none" rx="3" ry="3" style="stroke: #038048; stroke-width: 1.0;"/><text fill="#000000" font-family="sans-serif" font-size="11" lengthAdjust="spacingAndGlyphs" textLength="95" x="26" y="437.0151">Board: Board [1]</text><line style="stroke: #A80036; stroke-width: 1.5;" x1="7" x2="136" y1="443.6094" y2="443.6094"/><ellipse cx="17" cy="454.6094" fill="#84BE84" rx="3" ry="3" style="stroke: #038048; stroke-width: 1.0;"/><text fill="#000000" font-family="sans-serif" font-size="11" lengthAdjust="spacingAndGlyphs" textLength="81" x="26" y="457.8198">UpdateScore()</text><ellipse cx="17" cy="467.4141" fill="#84BE84" rx="3" ry="3" style="stroke: #038048; stroke-width: 1.0;"/><text fill="#000000" font-family="sans-serif" font-size="11" lengthAdjust="spacingAndGlyphs" textLength="74" x="26" y="470.6245">ResetBoard()</text><ellipse cx="17" cy="480.2188" fill="#84BE84" rx="3" ry="3" style="stroke: #038048; stroke-width: 1.0;"/><text fill="#000000" font-family="sans-serif" font-size="11" lengthAdjust="spacingAndGlyphs" textLength="96" x="26" y="483.4292">GetMove(): Tuple</text><ellipse cx="17" cy="493.0234" fill="#84BE84" rx="3" ry="3" style="stroke: #038048; stroke-width: 1.0;"/><text fill="#000000" font-family="sans-serif" font-size="11" lengthAdjust="spacingAndGlyphs" textLength="105" x="26" y="496.2339">FleetStatus(): Bool</text><!--MD5=[0dc7f2ddb409b58bcf52b12238c25399]
class Ship--><rect fill="#FEFECE" filter="url(#fthf83jh5zjau)" height="112.0234" id="Ship" style="stroke: #A80036; stroke-width: 1.5;" width="154" x="390.5" y="8"/><ellipse cx="449.75" cy="24" fill="#ADD1B2" rx="11" ry="11" style="stroke: #A80036; stroke-width: 1.0;"/><path d="M452.0938,19.6719 L452.2656,19.75 C452.4844,19.4375 452.6875,19.3438 452.9844,19.3438 C453.2813,19.3438 453.5625,19.4844 453.7188,19.75 C453.8125,19.9063 453.8281,20.0313 453.8281,20.4688 L453.8281,21.8906 C453.8281,22.3125 453.7969,22.5 453.6875,22.6563 C453.5156,22.875 453.25,23.0156 452.9844,23.0156 C452.7656,23.0156 452.5313,22.9063 452.3906,22.7656 C452.25,22.6406 452.2188,22.5156 452.1563,22.1094 C452.0625,21.7031 451.8906,21.4844 451.4063,21.2031 C450.9375,20.9531 450.3281,20.7969 449.75,20.7969 C448.0156,20.7969 446.7656,22.1094 446.7656,23.8906 L446.7656,24.9844 C446.7656,26.6875 448.0625,27.7813 450.1094,27.7813 C450.875,27.7813 451.5625,27.6563 451.9844,27.3906 C452.1719,27.2969 452.1719,27.2969 452.625,26.8125 C452.8125,26.625 453.0156,26.5469 453.2344,26.5469 C453.7031,26.5469 454.0938,26.9375 454.0938,27.3906 C454.0938,27.7813 453.7656,28.2344 453.1875,28.6406 C452.4375,29.1875 451.2813,29.4844 450.0625,29.4844 C447.1719,29.4844 445.0625,27.5938 445.0625,25.0156 L445.0625,23.8906 C445.0625,21.1719 447.0625,19.0938 449.6875,19.0938 C450.5625,19.0938 451.1563,19.2344 452.0938,19.6719 Z "/><text fill="#000000" font-family="sans-serif" font-size="12" lengthAdjust="spacingAndGlyphs" textLength="27" x="470.25" y="28.1543">Ship</text><line style="stroke: #A80036; stroke-width: 1.5;" x1="391.5" x2="543.5" y1="40" y2="40"/><rect fill="none" height="6" style="stroke: #C82930; stroke-width: 1.0;" width="6" x="398.5" y="48"/><text fill="#000000" font-family="sans-serif" font-size="11" lengthAdjust="spacingAndGlyphs" text-decoration="underline" textLength="49" x="410.5" y="54.2104">SIZE: Int</text><ellipse cx="401.5" cy="63.8047" fill="none" rx="3" ry="3" style="stroke: #038048; stroke-width: 1.0;"/><text fill="#000000" font-family="sans-serif" font-size="11" lengthAdjust="spacingAndGlyphs" textLength="64" x="410.5" y="67.0151">Health: List</text><ellipse cx="401.5" cy="76.6094" fill="none" rx="3" ry="3" style="stroke: #038048; stroke-width: 1.0;"/><text fill="#000000" font-family="sans-serif" font-size="11" lengthAdjust="spacingAndGlyphs" textLength="71" x="410.5" y="79.8198">IsSunk: Bool</text><line style="stroke: #A80036; stroke-width: 1.5;" x1="391.5" x2="543.5" y1="86.4141" y2="86.4141"/><ellipse cx="401.5" cy="97.4141" fill="#84BE84" rx="3" ry="3" style="stroke: #038048; stroke-width: 1.0;"/><text fill="#000000" font-family="sans-serif" font-size="11" lengthAdjust="spacingAndGlyphs" textLength="128" x="410.5" y="100.6245">UpdateHealth(hitIndex)</text><rect fill="#F24D5C" height="6" style="stroke: #C82930; stroke-width: 1.0;" width="6" x="398.5" y="107.2188"/><text fill="#000000" font-family="sans-serif" font-size="11" lengthAdjust="spacingAndGlyphs" textLength="57" x="410.5" y="113.4292">SinkShip()</text><!--MD5=[73f8164406aece3f4610036c09acc1fe]
class Battleship--><rect fill="#FEFECE" filter="url(#fthf83jh5zjau)" height="60.8047" id="Battleship" style="stroke: #A80036; stroke-width: 1.5;" width="99" x="560" y="218.5"/><ellipse cx="576.8" cy="234.5" fill="#ADD1B2" rx="11" ry="11" style="stroke: #A80036; stroke-width: 1.0;"/><path d="M579.1438,230.1719 L579.3156,230.25 C579.5344,229.9375 579.7375,229.8438 580.0344,229.8438 C580.3313,229.8438 580.6125,229.9844 580.7688,230.25 C580.8625,230.4063 580.8781,230.5313 580.8781,230.9688 L580.8781,232.3906 C580.8781,232.8125 580.8469,233 580.7375,233.1563 C580.5656,233.375 580.3,233.5156 580.0344,233.5156 C579.8156,233.5156 579.5813,233.4063 579.4406,233.2656 C579.3,233.1406 579.2688,233.0156 579.2063,232.6094 C579.1125,232.2031 578.9406,231.9844 578.4563,231.7031 C577.9875,231.4531 577.3781,231.2969 576.8,231.2969 C575.0656,231.2969 573.8156,232.6094 573.8156,234.3906 L573.8156,235.4844 C573.8156,237.1875 575.1125,238.2813 577.1594,238.2813 C577.925,238.2813 578.6125,238.1563 579.0344,237.8906 C579.2219,237.7969 579.2219,237.7969 579.675,237.3125 C579.8625,237.125 580.0656,237.0469 580.2844,237.0469 C580.7531,237.0469 581.1438,237.4375 581.1438,237.8906 C581.1438,238.2813 580.8156,238.7344 580.2375,239.1406 C579.4875,239.6875 578.3313,239.9844 577.1125,239.9844 C574.2219,239.9844 572.1125,238.0938 572.1125,235.5156 L572.1125,234.3906 C572.1125,231.6719 574.1125,229.5938 576.7375,229.5938 C577.6125,229.5938 578.2063,229.7344 579.1438,230.1719 Z "/><text fill="#000000" font-family="sans-serif" font-size="12" lengthAdjust="spacingAndGlyphs" textLength="63" x="591.2" y="238.6543">Battleship</text><line style="stroke: #A80036; stroke-width: 1.5;" x1="561" x2="658" y1="250.5" y2="250.5"/><rect fill="none" height="6" style="stroke: #C82930; stroke-width: 1.0;" width="6" x="568" y="258.5"/><text fill="#000000" font-family="sans-serif" font-size="11" lengthAdjust="spacingAndGlyphs" text-decoration="underline" textLength="73" x="580" y="264.7104">SIZE: int = 5</text><line style="stroke: #A80036; stroke-width: 1.5;" x1="561" x2="658" y1="271.3047" y2="271.3047"/><!--MD5=[92a4c3cf1b5f59c7b018e82300da5700]
class Destroyer--><rect fill="#FEFECE" filter="url(#fthf83jh5zjau)" height="60.8047" id="Destroyer" style="stroke: #A80036; stroke-width: 1.5;" width="99" x="276" y="218.5"/><ellipse cx="293.7" cy="234.5" fill="#ADD1B2" rx="11" ry="11" style="stroke: #A80036; stroke-width: 1.0;"/><path d="M296.0438,230.1719 L296.2156,230.25 C296.4344,229.9375 296.6375,229.8438 296.9344,229.8438 C297.2313,229.8438 297.5125,229.9844 297.6688,230.25 C297.7625,230.4063 297.7781,230.5313 297.7781,230.9688 L297.7781,232.3906 C297.7781,232.8125 297.7469,233 297.6375,233.1563 C297.4656,233.375 297.2,233.5156 296.9344,233.5156 C296.7156,233.5156 296.4813,233.4063 296.3406,233.2656 C296.2,233.1406 296.1688,233.0156 296.1063,232.6094 C296.0125,232.2031 295.8406,231.9844 295.3563,231.7031 C294.8875,231.4531 294.2781,231.2969 293.7,231.2969 C291.9656,231.2969 290.7156,232.6094 290.7156,234.3906 L290.7156,235.4844 C290.7156,237.1875 292.0125,238.2813 294.0594,238.2813 C294.825,238.2813 295.5125,238.1563 295.9344,237.8906 C296.1219,237.7969 296.1219,237.7969 296.575,237.3125 C296.7625,237.125 296.9656,237.0469 297.1844,237.0469 C297.6531,237.0469 298.0438,237.4375 298.0438,237.8906 C298.0438,238.2813 297.7156,238.7344 297.1375,239.1406 C296.3875,239.6875 295.2313,239.9844 294.0125,239.9844 C291.1219,239.9844 289.0125,238.0938 289.0125,235.5156 L289.0125,234.3906 C289.0125,231.6719 291.0125,229.5938 293.6375,229.5938 C294.5125,229.5938 295.1063,229.7344 296.0438,230.1719 Z "/><text fill="#000000" font-family="sans-serif" font-size="12" lengthAdjust="spacingAndGlyphs" textLength="61" x="308.3" y="238.6543">Destroyer</text><line style="stroke: #A80036; stroke-width: 1.5;" x1="277" x2="374" y1="250.5" y2="250.5"/><rect fill="none" height="6" style="stroke: #C82930; stroke-width: 1.0;" width="6" x="284" y="258.5"/><text fill="#000000" font-family="sans-serif" font-size="11" lengthAdjust="spacingAndGlyphs" text-decoration="underline" textLength="73" x="296" y="264.7104">SIZE: int = 3</text><line style="stroke: #A80036; stroke-width: 1.5;" x1="277" x2="374" y1="271.3047" y2="271.3047"/><!--MD5=[2eef7fc4115b5f860427aec302c2b49d]
class Minesweeper--><rect fill="#FEFECE" filter="url(#fthf83jh5zjau)" height="60.8047" id="Minesweeper" style="stroke: #A80036; stroke-width: 1.5;" width="114" x="410.5" y="218.5"/><ellipse cx="425.5" cy="234.5" fill="#ADD1B2" rx="11" ry="11" style="stroke: #A80036; stroke-width: 1.0;"/><path d="M427.8438,230.1719 L428.0156,230.25 C428.2344,229.9375 428.4375,229.8438 428.7344,229.8438 C429.0313,229.8438 429.3125,229.9844 429.4688,230.25 C429.5625,230.4063 429.5781,230.5313 429.5781,230.9688 L429.5781,232.3906 C429.5781,232.8125 429.5469,233 429.4375,233.1563 C429.2656,233.375 429,233.5156 428.7344,233.5156 C428.5156,233.5156 428.2813,233.4063 428.1406,233.2656 C428,233.1406 427.9688,233.0156 427.9063,232.6094 C427.8125,232.2031 427.6406,231.9844 427.1563,231.7031 C426.6875,231.4531 426.0781,231.2969 425.5,231.2969 C423.7656,231.2969 422.5156,232.6094 422.5156,234.3906 L422.5156,235.4844 C422.5156,237.1875 423.8125,238.2813 425.8594,238.2813 C426.625,238.2813 427.3125,238.1563 427.7344,237.8906 C427.9219,237.7969 427.9219,237.7969 428.375,237.3125 C428.5625,237.125 428.7656,237.0469 428.9844,237.0469 C429.4531,237.0469 429.8438,237.4375 429.8438,237.8906 C429.8438,238.2813 429.5156,238.7344 428.9375,239.1406 C428.1875,239.6875 427.0313,239.9844 425.8125,239.9844 C422.9219,239.9844 420.8125,238.0938 420.8125,235.5156 L420.8125,234.3906 C420.8125,231.6719 422.8125,229.5938 425.4375,229.5938 C426.3125,229.5938 426.9063,229.7344 427.8438,230.1719 Z "/><text fill="#000000" font-family="sans-serif" font-size="12" lengthAdjust="spacingAndGlyphs" textLength="82" x="439.5" y="238.6543">Minesweeper</text><line style="stroke: #A80036; stroke-width: 1.5;" x1="411.5" x2="523.5" y1="250.5" y2="250.5"/><rect fill="none" height="6" style="stroke: #C82930; stroke-width: 1.0;" width="6" x="418.5" y="258.5"/><text fill="#000000" font-family="sans-serif" font-size="11" lengthAdjust="spacingAndGlyphs" text-decoration="underline" textLength="73" x="430.5" y="264.7104">SIZE: int = 2</text><line style="stroke: #A80036; stroke-width: 1.5;" x1="411.5" x2="523.5" y1="271.3047" y2="271.3047"/><!--MD5=[30edda0e52fdb5bd41cea3dd5bdbfeba]
class Fleet--><rect fill="#FEFECE" filter="url(#fthf83jh5zjau)" height="99.2188" id="Fleet" style="stroke: #A80036; stroke-width: 1.5;" width="203" x="366" y="391"/><ellipse cx="447.75" cy="407" fill="#ADD1B2" rx="11" ry="11" style="stroke: #A80036; stroke-width: 1.0;"/><path d="M450.0938,402.6719 L450.2656,402.75 C450.4844,402.4375 450.6875,402.3438 450.9844,402.3438 C451.2813,402.3438 451.5625,402.4844 451.7188,402.75 C451.8125,402.9063 451.8281,403.0313 451.8281,403.4688 L451.8281,404.8906 C451.8281,405.3125 451.7969,405.5 451.6875,405.6563 C451.5156,405.875 451.25,406.0156 450.9844,406.0156 C450.7656,406.0156 450.5313,405.9063 450.3906,405.7656 C450.25,405.6406 450.2188,405.5156 450.1563,405.1094 C450.0625,404.7031 449.8906,404.4844 449.4063,404.2031 C448.9375,403.9531 448.3281,403.7969 447.75,403.7969 C446.0156,403.7969 444.7656,405.1094 444.7656,406.8906 L444.7656,407.9844 C444.7656,409.6875 446.0625,410.7813 448.1094,410.7813 C448.875,410.7813 449.5625,410.6563 449.9844,410.3906 C450.1719,410.2969 450.1719,410.2969 450.625,409.8125 C450.8125,409.625 451.0156,409.5469 451.2344,409.5469 C451.7031,409.5469 452.0938,409.9375 452.0938,410.3906 C452.0938,410.7813 451.7656,411.2344 451.1875,411.6406 C450.4375,412.1875 449.2813,412.4844 448.0625,412.4844 C445.1719,412.4844 443.0625,410.5938 443.0625,408.0156 L443.0625,406.8906 C443.0625,404.1719 445.0625,402.0938 447.6875,402.0938 C448.5625,402.0938 449.1563,402.2344 450.0938,402.6719 Z "/><text fill="#000000" font-family="sans-serif" font-size="12" lengthAdjust="spacingAndGlyphs" textLength="31" x="468.25" y="411.1543">Fleet</text><line style="stroke: #A80036; stroke-width: 1.5;" x1="367" x2="568" y1="423" y2="423"/><ellipse cx="377" cy="434" fill="none" rx="3" ry="3" style="stroke: #038048; stroke-width: 1.0;"/><text fill="#000000" font-family="sans-serif" font-size="11" lengthAdjust="spacingAndGlyphs" textLength="141" x="386" y="437.2104">Battleship: Battleship [1]</text><ellipse cx="377" cy="446.8047" fill="none" rx="3" ry="3" style="stroke: #038048; stroke-width: 1.0;"/><text fill="#000000" font-family="sans-serif" font-size="11" lengthAdjust="spacingAndGlyphs" textLength="139" x="386" y="450.0151">Destroyer: Destroyer [1]</text><ellipse cx="377" cy="459.6094" fill="none" rx="3" ry="3" style="stroke: #038048; stroke-width: 1.0;"/><text fill="#000000" font-family="sans-serif" font-size="11" lengthAdjust="spacingAndGlyphs" textLength="177" x="386" y="462.8198">Minesweeper: Minesweeper [2]</text><line style="stroke: #A80036; stroke-width: 1.5;" x1="367" x2="568" y1="469.4141" y2="469.4141"/><ellipse cx="377" cy="480.4141" fill="#84BE84" rx="3" ry="3" style="stroke: #038048; stroke-width: 1.0;"/><text fill="#000000" font-family="sans-serif" font-size="11" lengthAdjust="spacingAndGlyphs" textLength="105" x="386" y="483.6245">FleetStatus(): Bool</text><!--MD5=[bbc6ee62d3d47812e486fb9dc1de45ab]
reverse link Game to Player--><path d="M71.5,331.155 C71.5,346.831 71.5,363.013 71.5,377.938 " fill="none" id="Game&lt;-Player" style="stroke: #A80036; stroke-width: 1.0;"/><polygon fill="#A80036" points="71.5,318.146,67.5,324.146,71.5,330.146,75.5,324.146,71.5,318.146" style="stroke: #A80036; stroke-width: 1.0;"/><text fill="#000000" font-family="sans-serif" font-size="13" lengthAdjust="spacingAndGlyphs" textLength="8" x="58.8063" y="366.9216">2</text><!--MD5=[4c47dfb9d4ba9e03169fd2fa2e83336c]
reverse link Player to Board--><path d="M150.398,440.5 C157.468,440.5 164.539,440.5 171.609,440.5 " fill="none" id="Player&lt;-Board" style="stroke: #A80036; stroke-width: 1.0;"/><polygon fill="#FFFFFF" points="137.242,440.5,143.242,444.5,149.242,440.5,143.242,436.5,137.242,440.5" style="stroke: #A80036; stroke-width: 1.0;"/><!--MD5=[24b2361b02efad01e43b974fcd0c6f69]
reverse link Board to Fleet--><path d="M344.479,440.5 C351.597,440.5 358.715,440.5 365.833,440.5 " fill="none" id="Board&lt;-Fleet" style="stroke: #A80036; stroke-width: 1.0;"/><polygon fill="#A80036" points="331.234,440.5,337.234,444.5,343.234,440.5,337.234,436.5,331.234,440.5" style="stroke: #A80036; stroke-width: 1.0;"/><!--MD5=[f9befdb8eaef4d26dac00f3672962e1c]
link Battleship to Fleet--><path d="M587.312,279.609 C567.182,306.473 536.906,346.878 511.825,380.348 " fill="none" id="Battleship-&gt;Fleet" style="stroke: #A80036; stroke-width: 1.0;"/><polygon fill="#A80036" points="503.884,390.945,510.683,388.5423,511.0802,381.3422,504.2812,383.7448,503.884,390.945" style="stroke: #A80036; stroke-width: 1.0;"/><!--MD5=[afda50f1c24efd44194fc9bde120ee19]
link Destroyer to Fleet--><path d="M347.688,279.609 C367.818,306.473 398.094,346.878 423.175,380.348 " fill="none" id="Destroyer-&gt;Fleet" style="stroke: #A80036; stroke-width: 1.0;"/><polygon fill="#A80036" points="431.116,390.945,430.7188,383.7448,423.9198,381.3422,424.317,388.5423,431.116,390.945" style="stroke: #A80036; stroke-width: 1.0;"/><!--MD5=[a5714d1f91bd61f232db091c4e6e1456]
link Minesweeper to Fleet--><path d="M467.5,279.609 C467.5,305.776 467.5,344.788 467.5,377.726 " fill="none" id="Minesweeper-&gt;Fleet" style="stroke: #A80036; stroke-width: 1.0;"/><polygon fill="#A80036" points="467.5,390.945,471.5,384.945,467.5,378.945,463.5,384.945,467.5,390.945" style="stroke: #A80036; stroke-width: 1.0;"/><!--MD5=[ebda7ce3a9c85c4456b676f4e25eb0ca]
reverse link Ship to Battleship--><path d="M522.852,136.333 C544.978,164.848 569.237,196.112 586.445,218.288 " fill="none" id="Ship&lt;-Battleship" style="stroke: #A80036; stroke-width: 1.0;"/><polygon fill="none" points="517.221,140.495,510.49,120.403,528.281,131.912,517.221,140.495" style="stroke: #A80036; stroke-width: 1.0;"/><!--MD5=[8c74514cfa6a93aeb5ee92018b029bc8]
reverse link Ship to Destroyer--><path d="M412.148,136.333 C390.022,164.848 365.763,196.112 348.555,218.288 " fill="none" id="Ship&lt;-Destroyer" style="stroke: #A80036; stroke-width: 1.0;"/><polygon fill="none" points="406.719,131.912,424.51,120.403,417.779,140.495,406.719,131.912" style="stroke: #A80036; stroke-width: 1.0;"/><!--MD5=[de8d20ee7ba8dba86be795089067bb08]
reverse link Ship to Minesweeper--><path d="M467.5,140.73 C467.5,168.023 467.5,197.246 467.5,218.288 " fill="none" id="Ship&lt;-Minesweeper" style="stroke: #A80036; stroke-width: 1.0;"/><polygon fill="none" points="460.5,140.403,467.5,120.403,474.5,140.403,460.5,140.403" style="stroke: #A80036; stroke-width: 1.0;"/><!--MD5=[a9449e4ad655e43a331896271cc5ab05]
@startuml
class Game {
    +Player1: Player 
    +Player2: Player 
    -Turn: Int
    +StartGame()
    +DisplayScore()
    +PlayTurn()
    -UpdateScore()
}

class Board {
    +BoardGrid: List
    +Fleet: Fleet [1]
    +PrintBoard()
    +UpdateBoard()
    +PlaceShips()
    +CheckMove(moveTuple)
}

class Player {
    +Score: Int
    +Board: Board [1]
    +UpdateScore()
    +ResetBoard()
    +GetMove(): Tuple
    +FleetStatus(): Bool
}

class Ship {
    -{static}SIZE: Int
    +Health: List
    +IsSunk: Bool
    +UpdateHealth(hitIndex)
    -SinkShip()
}

class Battleship {
    -{static}SIZE: int = 5 
}

class Destroyer {
    -{static}SIZE: int = 3 
}

class Minesweeper {
    -{static}SIZE: int = 2 
}

class Fleet {
    +Battleship: Battleship [1]
    +Destroyer: Destroyer [1]
    +Minesweeper: Minesweeper [2]
    +FleetStatus(): Bool
}

Player "2 "-down-* Game
Board -right-o Player
Fleet -right-* Board

Battleship - -* Fleet
Destroyer - -* Fleet
Minesweeper - -* Fleet

Battleship -up-|> Ship
Destroyer -up-|> Ship
Minesweeper -up-|> Ship
@enduml

PlantUML version 1.2020.02(Sun Mar 01 10:22:07 UTC 2020)
(GPL source distribution)
Java Runtime: Java(TM) SE Runtime Environment
JVM: Java HotSpot(TM) 64-Bit Server VM
Java Version: 1.7.0_25-b15
Operating System: Linux
Default Encoding: UTF-8
Language: en
Country: US
--></g></svg>