<?xml version="1.0" encoding="UTF-8" standalone="no"?><svg xmlns="http://www.w3.org/2000/svg" xmlns:xlink="http://www.w3.org/1999/xlink" contentScriptType="application/ecmascript" contentStyleType="text/css" height="501px" preserveAspectRatio="none" style="width:614px;height:501px;" version="1.1" viewBox="0 0 614 501" width="614px" zoomAndPan="magnify"><defs><filter height="300%" id="f1xkwtcz4567qz" width="300%" x="-1" y="-1"><feGaussianBlur result="blurOut" stdDeviation="2.0"/><feColorMatrix in="blurOut" result="blurOut2" type="matrix" values="0 0 0 0 0 0 0 0 0 0 0 0 0 0 0 0 0 0 .4 0"/><feOffset dx="4.0" dy="4.0" in="blurOut2" result="blurOut3"/><feBlend in="SourceGraphic" in2="blurOut3" mode="normal"/></filter></defs><g><!--MD5=[b6dcce5e5ef3c84b0b048d11301373dd]
class Game--><rect fill="#FEFECE" filter="url(#f1xkwtcz4567qz)" height="137.6328" id="Game" style="stroke: #A80036; stroke-width: 1.5;" width="111" x="11" y="180"/><ellipse cx="45.35" cy="196" fill="#ADD1B2" rx="11" ry="11" style="stroke: #A80036; stroke-width: 1.0;"/><path d="M47.6938,191.6719 L47.8656,191.75 C48.0844,191.4375 48.2875,191.3438 48.5844,191.3438 C48.8813,191.3438 49.1625,191.4844 49.3188,191.75 C49.4125,191.9063 49.4281,192.0313 49.4281,192.4688 L49.4281,193.8906 C49.4281,194.3125 49.3969,194.5 49.2875,194.6563 C49.1156,194.875 48.85,195.0156 48.5844,195.0156 C48.3656,195.0156 48.1313,194.9063 47.9906,194.7656 C47.85,194.6406 47.8188,194.5156 47.7563,194.1094 C47.6625,193.7031 47.4906,193.4844 47.0063,193.2031 C46.5375,192.9531 45.9281,192.7969 45.35,192.7969 C43.6156,192.7969 42.3656,194.1094 42.3656,195.8906 L42.3656,196.9844 C42.3656,198.6875 43.6625,199.7813 45.7094,199.7813 C46.475,199.7813 47.1625,199.6563 47.5844,199.3906 C47.7719,199.2969 47.7719,199.2969 48.225,198.8125 C48.4125,198.625 48.6156,198.5469 48.8344,198.5469 C49.3031,198.5469 49.6938,198.9375 49.6938,199.3906 C49.6938,199.7813 49.3656,200.2344 48.7875,200.6406 C48.0375,201.1875 46.8813,201.4844 45.6625,201.4844 C42.7719,201.4844 40.6625,199.5938 40.6625,197.0156 L40.6625,195.8906 C40.6625,193.1719 42.6625,191.0938 45.2875,191.0938 C46.1625,191.0938 46.7563,191.2344 47.6938,191.6719 Z "/><text fill="#000000" font-family="sans-serif" font-size="12" lengthAdjust="spacingAndGlyphs" textLength="36" x="63.65" y="200.1543">Game</text><line style="stroke: #A80036; stroke-width: 1.5;" x1="12" x2="121" y1="212" y2="212"/><ellipse cx="22" cy="223" fill="none" rx="3" ry="3" style="stroke: #038048; stroke-width: 1.0;"/><text fill="#000000" font-family="sans-serif" font-size="11" lengthAdjust="spacingAndGlyphs" textLength="85" x="31" y="226.2104">Player1: Player</text><ellipse cx="22" cy="235.8047" fill="none" rx="3" ry="3" style="stroke: #038048; stroke-width: 1.0;"/><text fill="#000000" font-family="sans-serif" font-size="11" lengthAdjust="spacingAndGlyphs" textLength="85" x="31" y="239.0151">Player2: Player</text><rect fill="none" height="6" style="stroke: #C82930; stroke-width: 1.0;" width="6" x="19" y="245.6094"/><text fill="#000000" font-family="sans-serif" font-size="11" lengthAdjust="spacingAndGlyphs" textLength="48" x="31" y="251.8198">Turn: Int</text><line style="stroke: #A80036; stroke-width: 1.5;" x1="12" x2="121" y1="258.4141" y2="258.4141"/><ellipse cx="22" cy="269.4141" fill="#84BE84" rx="3" ry="3" style="stroke: #038048; stroke-width: 1.0;"/><text fill="#000000" font-family="sans-serif" font-size="11" lengthAdjust="spacingAndGlyphs" textLength="70" x="31" y="272.6245">StartGame()</text><ellipse cx="22" cy="282.2188" fill="#84BE84" rx="3" ry="3" style="stroke: #038048; stroke-width: 1.0;"/><text fill="#000000" font-family="sans-serif" font-size="11" lengthAdjust="spacingAndGlyphs" textLength="65" x="31" y="285.4292">QuitGame()</text><ellipse cx="22" cy="295.0234" fill="#84BE84" rx="3" ry="3" style="stroke: #038048; stroke-width: 1.0;"/><text fill="#000000" font-family="sans-serif" font-size="11" lengthAdjust="spacingAndGlyphs" textLength="82" x="31" y="298.2339">DisplayScore()</text><rect fill="#F24D5C" height="6" style="stroke: #C82930; stroke-width: 1.0;" width="6" x="19" y="304.8281"/><text fill="#000000" font-family="sans-serif" font-size="11" lengthAdjust="spacingAndGlyphs" textLength="81" x="31" y="311.0386">UpdateScore()</text><!--MD5=[9563755d011c5cec7ec66dc53565a59e]
class Board--><rect fill="#FEFECE" filter="url(#f1xkwtcz4567qz)" height="112.0234" id="Board" style="stroke: #A80036; stroke-width: 1.5;" width="112" x="162.5" y="378"/><ellipse cx="196.85" cy="394" fill="#ADD1B2" rx="11" ry="11" style="stroke: #A80036; stroke-width: 1.0;"/><path d="M199.1938,389.6719 L199.3656,389.75 C199.5844,389.4375 199.7875,389.3438 200.0844,389.3438 C200.3813,389.3438 200.6625,389.4844 200.8188,389.75 C200.9125,389.9063 200.9281,390.0313 200.9281,390.4688 L200.9281,391.8906 C200.9281,392.3125 200.8969,392.5 200.7875,392.6563 C200.6156,392.875 200.35,393.0156 200.0844,393.0156 C199.8656,393.0156 199.6313,392.9063 199.4906,392.7656 C199.35,392.6406 199.3188,392.5156 199.2563,392.1094 C199.1625,391.7031 198.9906,391.4844 198.5063,391.2031 C198.0375,390.9531 197.4281,390.7969 196.85,390.7969 C195.1156,390.7969 193.8656,392.1094 193.8656,393.8906 L193.8656,394.9844 C193.8656,396.6875 195.1625,397.7813 197.2094,397.7813 C197.975,397.7813 198.6625,397.6563 199.0844,397.3906 C199.2719,397.2969 199.2719,397.2969 199.725,396.8125 C199.9125,396.625 200.1156,396.5469 200.3344,396.5469 C200.8031,396.5469 201.1938,396.9375 201.1938,397.3906 C201.1938,397.7813 200.8656,398.2344 200.2875,398.6406 C199.5375,399.1875 198.3813,399.4844 197.1625,399.4844 C194.2719,399.4844 192.1625,397.5938 192.1625,395.0156 L192.1625,393.8906 C192.1625,391.1719 194.1625,389.0938 196.7875,389.0938 C197.6625,389.0938 198.2563,389.2344 199.1938,389.6719 Z "/><text fill="#000000" font-family="sans-serif" font-size="12" lengthAdjust="spacingAndGlyphs" textLength="37" x="215.15" y="398.1543">Board</text><line style="stroke: #A80036; stroke-width: 1.5;" x1="163.5" x2="273.5" y1="410" y2="410"/><ellipse cx="173.5" cy="421" fill="none" rx="3" ry="3" style="stroke: #038048; stroke-width: 1.0;"/><text fill="#000000" font-family="sans-serif" font-size="11" lengthAdjust="spacingAndGlyphs" textLength="86" x="182.5" y="424.2104">BoardGrid: List</text><ellipse cx="173.5" cy="433.8047" fill="none" rx="3" ry="3" style="stroke: #038048; stroke-width: 1.0;"/><text fill="#000000" font-family="sans-serif" font-size="11" lengthAdjust="spacingAndGlyphs" textLength="81" x="182.5" y="437.0151">Fleet: Fleet [1]</text><line style="stroke: #A80036; stroke-width: 1.5;" x1="163.5" x2="273.5" y1="443.6094" y2="443.6094"/><ellipse cx="173.5" cy="454.6094" fill="#84BE84" rx="3" ry="3" style="stroke: #038048; stroke-width: 1.0;"/><text fill="#000000" font-family="sans-serif" font-size="11" lengthAdjust="spacingAndGlyphs" textLength="68" x="182.5" y="457.8198">PrintBoard()</text><ellipse cx="173.5" cy="467.4141" fill="#84BE84" rx="3" ry="3" style="stroke: #038048; stroke-width: 1.0;"/><text fill="#000000" font-family="sans-serif" font-size="11" lengthAdjust="spacingAndGlyphs" textLength="82" x="182.5" y="470.6245">UpdateBoard()</text><ellipse cx="173.5" cy="480.2188" fill="#84BE84" rx="3" ry="3" style="stroke: #038048; stroke-width: 1.0;"/><text fill="#000000" font-family="sans-serif" font-size="11" lengthAdjust="spacingAndGlyphs" textLength="70" x="182.5" y="483.4292">PlaceShips()</text><!--MD5=[2cb47ba637a0d19583e6199456f6ad0b]
class Player--><rect fill="#FEFECE" filter="url(#f1xkwtcz4567qz)" height="86.4141" id="Player" style="stroke: #A80036; stroke-width: 1.5;" width="121" x="6" y="391"/><ellipse cx="43.95" cy="407" fill="#ADD1B2" rx="11" ry="11" style="stroke: #A80036; stroke-width: 1.0;"/><path d="M46.2938,402.6719 L46.4656,402.75 C46.6844,402.4375 46.8875,402.3438 47.1844,402.3438 C47.4813,402.3438 47.7625,402.4844 47.9188,402.75 C48.0125,402.9063 48.0281,403.0313 48.0281,403.4688 L48.0281,404.8906 C48.0281,405.3125 47.9969,405.5 47.8875,405.6563 C47.7156,405.875 47.45,406.0156 47.1844,406.0156 C46.9656,406.0156 46.7313,405.9063 46.5906,405.7656 C46.45,405.6406 46.4188,405.5156 46.3563,405.1094 C46.2625,404.7031 46.0906,404.4844 45.6063,404.2031 C45.1375,403.9531 44.5281,403.7969 43.95,403.7969 C42.2156,403.7969 40.9656,405.1094 40.9656,406.8906 L40.9656,407.9844 C40.9656,409.6875 42.2625,410.7813 44.3094,410.7813 C45.075,410.7813 45.7625,410.6563 46.1844,410.3906 C46.3719,410.2969 46.3719,410.2969 46.825,409.8125 C47.0125,409.625 47.2156,409.5469 47.4344,409.5469 C47.9031,409.5469 48.2938,409.9375 48.2938,410.3906 C48.2938,410.7813 47.9656,411.2344 47.3875,411.6406 C46.6375,412.1875 45.4813,412.4844 44.2625,412.4844 C41.3719,412.4844 39.2625,410.5938 39.2625,408.0156 L39.2625,406.8906 C39.2625,404.1719 41.2625,402.0938 43.8875,402.0938 C44.7625,402.0938 45.3563,402.2344 46.2938,402.6719 Z "/><text fill="#000000" font-family="sans-serif" font-size="12" lengthAdjust="spacingAndGlyphs" textLength="38" x="63.05" y="411.1543">Player</text><line style="stroke: #A80036; stroke-width: 1.5;" x1="7" x2="126" y1="423" y2="423"/><ellipse cx="17" cy="434" fill="none" rx="3" ry="3" style="stroke: #038048; stroke-width: 1.0;"/><text fill="#000000" font-family="sans-serif" font-size="11" lengthAdjust="spacingAndGlyphs" textLength="55" x="26" y="437.2104">Score: Int</text><ellipse cx="17" cy="446.8047" fill="none" rx="3" ry="3" style="stroke: #038048; stroke-width: 1.0;"/><text fill="#000000" font-family="sans-serif" font-size="11" lengthAdjust="spacingAndGlyphs" textLength="95" x="26" y="450.0151">Board: Board [1]</text><line style="stroke: #A80036; stroke-width: 1.5;" x1="7" x2="126" y1="456.6094" y2="456.6094"/><ellipse cx="17" cy="467.6094" fill="#84BE84" rx="3" ry="3" style="stroke: #038048; stroke-width: 1.0;"/><text fill="#000000" font-family="sans-serif" font-size="11" lengthAdjust="spacingAndGlyphs" textLength="81" x="26" y="470.8198">UpdateScore()</text><!--MD5=[0dc7f2ddb409b58bcf52b12238c25399]
class Ship--><rect fill="#FEFECE" filter="url(#f1xkwtcz4567qz)" height="112.0234" id="Ship" style="stroke: #A80036; stroke-width: 1.5;" width="110" x="356.5" y="8"/><ellipse cx="394.45" cy="24" fill="#ADD1B2" rx="11" ry="11" style="stroke: #A80036; stroke-width: 1.0;"/><path d="M396.7938,19.6719 L396.9656,19.75 C397.1844,19.4375 397.3875,19.3438 397.6844,19.3438 C397.9813,19.3438 398.2625,19.4844 398.4188,19.75 C398.5125,19.9063 398.5281,20.0313 398.5281,20.4688 L398.5281,21.8906 C398.5281,22.3125 398.4969,22.5 398.3875,22.6563 C398.2156,22.875 397.95,23.0156 397.6844,23.0156 C397.4656,23.0156 397.2313,22.9063 397.0906,22.7656 C396.95,22.6406 396.9188,22.5156 396.8563,22.1094 C396.7625,21.7031 396.5906,21.4844 396.1063,21.2031 C395.6375,20.9531 395.0281,20.7969 394.45,20.7969 C392.7156,20.7969 391.4656,22.1094 391.4656,23.8906 L391.4656,24.9844 C391.4656,26.6875 392.7625,27.7813 394.8094,27.7813 C395.575,27.7813 396.2625,27.6563 396.6844,27.3906 C396.8719,27.2969 396.8719,27.2969 397.325,26.8125 C397.5125,26.625 397.7156,26.5469 397.9344,26.5469 C398.4031,26.5469 398.7938,26.9375 398.7938,27.3906 C398.7938,27.7813 398.4656,28.2344 397.8875,28.6406 C397.1375,29.1875 395.9813,29.4844 394.7625,29.4844 C391.8719,29.4844 389.7625,27.5938 389.7625,25.0156 L389.7625,23.8906 C389.7625,21.1719 391.7625,19.0938 394.3875,19.0938 C395.2625,19.0938 395.8563,19.2344 396.7938,19.6719 Z "/><text fill="#000000" font-family="sans-serif" font-size="12" lengthAdjust="spacingAndGlyphs" textLength="27" x="413.55" y="28.1543">Ship</text><line style="stroke: #A80036; stroke-width: 1.5;" x1="357.5" x2="465.5" y1="40" y2="40"/><rect fill="none" height="6" style="stroke: #C82930; stroke-width: 1.0;" width="6" x="364.5" y="48"/><text fill="#000000" font-family="sans-serif" font-size="11" lengthAdjust="spacingAndGlyphs" text-decoration="underline" textLength="49" x="376.5" y="54.2104">SIZE: Int</text><ellipse cx="367.5" cy="63.8047" fill="none" rx="3" ry="3" style="stroke: #038048; stroke-width: 1.0;"/><text fill="#000000" font-family="sans-serif" font-size="11" lengthAdjust="spacingAndGlyphs" textLength="64" x="376.5" y="67.0151">Health: List</text><ellipse cx="367.5" cy="76.6094" fill="none" rx="3" ry="3" style="stroke: #038048; stroke-width: 1.0;"/><text fill="#000000" font-family="sans-serif" font-size="11" lengthAdjust="spacingAndGlyphs" textLength="71" x="376.5" y="79.8198">IsSunk: Bool</text><line style="stroke: #A80036; stroke-width: 1.5;" x1="357.5" x2="465.5" y1="86.4141" y2="86.4141"/><ellipse cx="367.5" cy="97.4141" fill="#84BE84" rx="3" ry="3" style="stroke: #038048; stroke-width: 1.0;"/><text fill="#000000" font-family="sans-serif" font-size="11" lengthAdjust="spacingAndGlyphs" textLength="84" x="376.5" y="100.6245">UpdateHealth()</text><ellipse cx="367.5" cy="110.2188" fill="#84BE84" rx="3" ry="3" style="stroke: #038048; stroke-width: 1.0;"/><text fill="#000000" font-family="sans-serif" font-size="11" lengthAdjust="spacingAndGlyphs" textLength="57" x="376.5" y="113.4292">SinkShip()</text><!--MD5=[73f8164406aece3f4610036c09acc1fe]
class Battleship--><rect fill="#FEFECE" filter="url(#f1xkwtcz4567qz)" height="60.8047" id="Battleship" style="stroke: #A80036; stroke-width: 1.5;" width="99" x="504" y="218.5"/><ellipse cx="520.8" cy="234.5" fill="#ADD1B2" rx="11" ry="11" style="stroke: #A80036; stroke-width: 1.0;"/><path d="M523.1438,230.1719 L523.3156,230.25 C523.5344,229.9375 523.7375,229.8438 524.0344,229.8438 C524.3313,229.8438 524.6125,229.9844 524.7688,230.25 C524.8625,230.4063 524.8781,230.5313 524.8781,230.9688 L524.8781,232.3906 C524.8781,232.8125 524.8469,233 524.7375,233.1563 C524.5656,233.375 524.3,233.5156 524.0344,233.5156 C523.8156,233.5156 523.5813,233.4063 523.4406,233.2656 C523.3,233.1406 523.2688,233.0156 523.2063,232.6094 C523.1125,232.2031 522.9406,231.9844 522.4563,231.7031 C521.9875,231.4531 521.3781,231.2969 520.8,231.2969 C519.0656,231.2969 517.8156,232.6094 517.8156,234.3906 L517.8156,235.4844 C517.8156,237.1875 519.1125,238.2813 521.1594,238.2813 C521.925,238.2813 522.6125,238.1563 523.0344,237.8906 C523.2219,237.7969 523.2219,237.7969 523.675,237.3125 C523.8625,237.125 524.0656,237.0469 524.2844,237.0469 C524.7531,237.0469 525.1438,237.4375 525.1438,237.8906 C525.1438,238.2813 524.8156,238.7344 524.2375,239.1406 C523.4875,239.6875 522.3313,239.9844 521.1125,239.9844 C518.2219,239.9844 516.1125,238.0938 516.1125,235.5156 L516.1125,234.3906 C516.1125,231.6719 518.1125,229.5938 520.7375,229.5938 C521.6125,229.5938 522.2063,229.7344 523.1438,230.1719 Z "/><text fill="#000000" font-family="sans-serif" font-size="12" lengthAdjust="spacingAndGlyphs" textLength="63" x="535.2" y="238.6543">Battleship</text><line style="stroke: #A80036; stroke-width: 1.5;" x1="505" x2="602" y1="250.5" y2="250.5"/><rect fill="none" height="6" style="stroke: #C82930; stroke-width: 1.0;" width="6" x="512" y="258.5"/><text fill="#000000" font-family="sans-serif" font-size="11" lengthAdjust="spacingAndGlyphs" text-decoration="underline" textLength="73" x="524" y="264.7104">SIZE: int = 5</text><line style="stroke: #A80036; stroke-width: 1.5;" x1="505" x2="602" y1="271.3047" y2="271.3047"/><!--MD5=[92a4c3cf1b5f59c7b018e82300da5700]
class Destroyer--><rect fill="#FEFECE" filter="url(#f1xkwtcz4567qz)" height="60.8047" id="Destroyer" style="stroke: #A80036; stroke-width: 1.5;" width="99" x="220" y="218.5"/><ellipse cx="237.7" cy="234.5" fill="#ADD1B2" rx="11" ry="11" style="stroke: #A80036; stroke-width: 1.0;"/><path d="M240.0438,230.1719 L240.2156,230.25 C240.4344,229.9375 240.6375,229.8438 240.9344,229.8438 C241.2313,229.8438 241.5125,229.9844 241.6688,230.25 C241.7625,230.4063 241.7781,230.5313 241.7781,230.9688 L241.7781,232.3906 C241.7781,232.8125 241.7469,233 241.6375,233.1563 C241.4656,233.375 241.2,233.5156 240.9344,233.5156 C240.7156,233.5156 240.4813,233.4063 240.3406,233.2656 C240.2,233.1406 240.1688,233.0156 240.1063,232.6094 C240.0125,232.2031 239.8406,231.9844 239.3563,231.7031 C238.8875,231.4531 238.2781,231.2969 237.7,231.2969 C235.9656,231.2969 234.7156,232.6094 234.7156,234.3906 L234.7156,235.4844 C234.7156,237.1875 236.0125,238.2813 238.0594,238.2813 C238.825,238.2813 239.5125,238.1563 239.9344,237.8906 C240.1219,237.7969 240.1219,237.7969 240.575,237.3125 C240.7625,237.125 240.9656,237.0469 241.1844,237.0469 C241.6531,237.0469 242.0438,237.4375 242.0438,237.8906 C242.0438,238.2813 241.7156,238.7344 241.1375,239.1406 C240.3875,239.6875 239.2313,239.9844 238.0125,239.9844 C235.1219,239.9844 233.0125,238.0938 233.0125,235.5156 L233.0125,234.3906 C233.0125,231.6719 235.0125,229.5938 237.6375,229.5938 C238.5125,229.5938 239.1063,229.7344 240.0438,230.1719 Z "/><text fill="#000000" font-family="sans-serif" font-size="12" lengthAdjust="spacingAndGlyphs" textLength="61" x="252.3" y="238.6543">Destroyer</text><line style="stroke: #A80036; stroke-width: 1.5;" x1="221" x2="318" y1="250.5" y2="250.5"/><rect fill="none" height="6" style="stroke: #C82930; stroke-width: 1.0;" width="6" x="228" y="258.5"/><text fill="#000000" font-family="sans-serif" font-size="11" lengthAdjust="spacingAndGlyphs" text-decoration="underline" textLength="73" x="240" y="264.7104">SIZE: int = 3</text><line style="stroke: #A80036; stroke-width: 1.5;" x1="221" x2="318" y1="271.3047" y2="271.3047"/><!--MD5=[2eef7fc4115b5f860427aec302c2b49d]
class Minesweeper--><rect fill="#FEFECE" filter="url(#f1xkwtcz4567qz)" height="60.8047" id="Minesweeper" style="stroke: #A80036; stroke-width: 1.5;" width="114" x="354.5" y="218.5"/><ellipse cx="369.5" cy="234.5" fill="#ADD1B2" rx="11" ry="11" style="stroke: #A80036; stroke-width: 1.0;"/><path d="M371.8438,230.1719 L372.0156,230.25 C372.2344,229.9375 372.4375,229.8438 372.7344,229.8438 C373.0313,229.8438 373.3125,229.9844 373.4688,230.25 C373.5625,230.4063 373.5781,230.5313 373.5781,230.9688 L373.5781,232.3906 C373.5781,232.8125 373.5469,233 373.4375,233.1563 C373.2656,233.375 373,233.5156 372.7344,233.5156 C372.5156,233.5156 372.2813,233.4063 372.1406,233.2656 C372,233.1406 371.9688,233.0156 371.9063,232.6094 C371.8125,232.2031 371.6406,231.9844 371.1563,231.7031 C370.6875,231.4531 370.0781,231.2969 369.5,231.2969 C367.7656,231.2969 366.5156,232.6094 366.5156,234.3906 L366.5156,235.4844 C366.5156,237.1875 367.8125,238.2813 369.8594,238.2813 C370.625,238.2813 371.3125,238.1563 371.7344,237.8906 C371.9219,237.7969 371.9219,237.7969 372.375,237.3125 C372.5625,237.125 372.7656,237.0469 372.9844,237.0469 C373.4531,237.0469 373.8438,237.4375 373.8438,237.8906 C373.8438,238.2813 373.5156,238.7344 372.9375,239.1406 C372.1875,239.6875 371.0313,239.9844 369.8125,239.9844 C366.9219,239.9844 364.8125,238.0938 364.8125,235.5156 L364.8125,234.3906 C364.8125,231.6719 366.8125,229.5938 369.4375,229.5938 C370.3125,229.5938 370.9063,229.7344 371.8438,230.1719 Z "/><text fill="#000000" font-family="sans-serif" font-size="12" lengthAdjust="spacingAndGlyphs" textLength="82" x="383.5" y="238.6543">Minesweeper</text><line style="stroke: #A80036; stroke-width: 1.5;" x1="355.5" x2="467.5" y1="250.5" y2="250.5"/><rect fill="none" height="6" style="stroke: #C82930; stroke-width: 1.0;" width="6" x="362.5" y="258.5"/><text fill="#000000" font-family="sans-serif" font-size="11" lengthAdjust="spacingAndGlyphs" text-decoration="underline" textLength="73" x="374.5" y="264.7104">SIZE: int = 2</text><line style="stroke: #A80036; stroke-width: 1.5;" x1="355.5" x2="467.5" y1="271.3047" y2="271.3047"/><!--MD5=[30edda0e52fdb5bd41cea3dd5bdbfeba]
class Fleet--><rect fill="#FEFECE" filter="url(#f1xkwtcz4567qz)" height="86.4141" id="Fleet" style="stroke: #A80036; stroke-width: 1.5;" width="203" x="310" y="391"/><ellipse cx="391.75" cy="407" fill="#ADD1B2" rx="11" ry="11" style="stroke: #A80036; stroke-width: 1.0;"/><path d="M394.0938,402.6719 L394.2656,402.75 C394.4844,402.4375 394.6875,402.3438 394.9844,402.3438 C395.2813,402.3438 395.5625,402.4844 395.7188,402.75 C395.8125,402.9063 395.8281,403.0313 395.8281,403.4688 L395.8281,404.8906 C395.8281,405.3125 395.7969,405.5 395.6875,405.6563 C395.5156,405.875 395.25,406.0156 394.9844,406.0156 C394.7656,406.0156 394.5313,405.9063 394.3906,405.7656 C394.25,405.6406 394.2188,405.5156 394.1563,405.1094 C394.0625,404.7031 393.8906,404.4844 393.4063,404.2031 C392.9375,403.9531 392.3281,403.7969 391.75,403.7969 C390.0156,403.7969 388.7656,405.1094 388.7656,406.8906 L388.7656,407.9844 C388.7656,409.6875 390.0625,410.7813 392.1094,410.7813 C392.875,410.7813 393.5625,410.6563 393.9844,410.3906 C394.1719,410.2969 394.1719,410.2969 394.625,409.8125 C394.8125,409.625 395.0156,409.5469 395.2344,409.5469 C395.7031,409.5469 396.0938,409.9375 396.0938,410.3906 C396.0938,410.7813 395.7656,411.2344 395.1875,411.6406 C394.4375,412.1875 393.2813,412.4844 392.0625,412.4844 C389.1719,412.4844 387.0625,410.5938 387.0625,408.0156 L387.0625,406.8906 C387.0625,404.1719 389.0625,402.0938 391.6875,402.0938 C392.5625,402.0938 393.1563,402.2344 394.0938,402.6719 Z "/><text fill="#000000" font-family="sans-serif" font-size="12" lengthAdjust="spacingAndGlyphs" textLength="31" x="412.25" y="411.1543">Fleet</text><line style="stroke: #A80036; stroke-width: 1.5;" x1="311" x2="512" y1="423" y2="423"/><ellipse cx="321" cy="434" fill="none" rx="3" ry="3" style="stroke: #038048; stroke-width: 1.0;"/><text fill="#000000" font-family="sans-serif" font-size="11" lengthAdjust="spacingAndGlyphs" textLength="141" x="330" y="437.2104">Battleship: Battleship [1]</text><ellipse cx="321" cy="446.8047" fill="none" rx="3" ry="3" style="stroke: #038048; stroke-width: 1.0;"/><text fill="#000000" font-family="sans-serif" font-size="11" lengthAdjust="spacingAndGlyphs" textLength="139" x="330" y="450.0151">Destroyer: Destroyer [1]</text><ellipse cx="321" cy="459.6094" fill="none" rx="3" ry="3" style="stroke: #038048; stroke-width: 1.0;"/><text fill="#000000" font-family="sans-serif" font-size="11" lengthAdjust="spacingAndGlyphs" textLength="177" x="330" y="462.8198">Minesweeper: Minesweeper [2]</text><line style="stroke: #A80036; stroke-width: 1.5;" x1="311" x2="512" y1="469.4141" y2="469.4141"/><!--MD5=[bbc6ee62d3d47812e486fb9dc1de45ab]
reverse link Game to Player--><path d="M66.5,331.182 C66.5,351.779 66.5,373.081 66.5,390.8438 " fill="none" id="Game&lt;-Player" style="stroke: #A80036; stroke-width: 1.0;"/><polygon fill="#A80036" points="66.5,318.142,62.5,324.142,66.5,330.142,70.5,324.142,66.5,318.142" style="stroke: #A80036; stroke-width: 1.0;"/><text fill="#000000" font-family="sans-serif" font-size="13" lengthAdjust="spacingAndGlyphs" textLength="8" x="53.5438" y="379.8152">2</text><!--MD5=[4c47dfb9d4ba9e03169fd2fa2e83336c]
reverse link Player to Board--><path d="M140.323,434 C147.69,434 155.056,434 162.423,434 " fill="none" id="Player&lt;-Board" style="stroke: #A80036; stroke-width: 1.0;"/><polygon fill="#A80036" points="127.062,434,133.062,438,139.062,434,133.062,430,127.062,434" style="stroke: #A80036; stroke-width: 1.0;"/><!--MD5=[24b2361b02efad01e43b974fcd0c6f69]
reverse link Board to Fleet--><path d="M287.895,434 C295.245,434 302.594,434 309.944,434 " fill="none" id="Board&lt;-Fleet" style="stroke: #A80036; stroke-width: 1.0;"/><polygon fill="#A80036" points="274.666,434,280.666,438,286.666,434,280.666,430,274.666,434" style="stroke: #A80036; stroke-width: 1.0;"/><!--MD5=[f9befdb8eaef4d26dac00f3672962e1c]
link Battleship to Fleet--><path d="M530.369,279.809 C509.237,307.043 477.514,347.925 452.154,380.608 " fill="none" id="Battleship-&gt;Fleet" style="stroke: #A80036; stroke-width: 1.0;"/><polygon fill="#A80036" points="444.165,390.9031,451.0034,388.6149,451.5214,381.4224,444.683,383.7106,444.165,390.9031" style="stroke: #A80036; stroke-width: 1.0;"/><!--MD5=[afda50f1c24efd44194fc9bde120ee19]
link Destroyer to Fleet--><path d="M292.631,279.809 C313.763,307.043 345.486,347.925 370.846,380.608 " fill="none" id="Destroyer-&gt;Fleet" style="stroke: #A80036; stroke-width: 1.0;"/><polygon fill="#A80036" points="378.835,390.9031,378.317,383.7106,371.4786,381.4224,371.9966,388.6149,378.835,390.9031" style="stroke: #A80036; stroke-width: 1.0;"/><!--MD5=[a5714d1f91bd61f232db091c4e6e1456]
link Minesweeper to Fleet--><path d="M411.5,279.809 C411.5,306.218 411.5,345.46 411.5,377.615 " fill="none" id="Minesweeper-&gt;Fleet" style="stroke: #A80036; stroke-width: 1.0;"/><polygon fill="#A80036" points="411.5,390.9031,415.5,384.9031,411.5,378.9031,407.5,384.9031,411.5,390.9031" style="stroke: #A80036; stroke-width: 1.0;"/><!--MD5=[ebda7ce3a9c85c4456b676f4e25eb0ca]
reverse link Ship to Battleship--><path d="M466.852,136.333 C488.978,164.848 513.237,196.112 530.445,218.288 " fill="none" id="Ship&lt;-Battleship" style="stroke: #A80036; stroke-width: 1.0;"/><polygon fill="none" points="461.221,140.495,454.49,120.403,472.281,131.912,461.221,140.495" style="stroke: #A80036; stroke-width: 1.0;"/><!--MD5=[8c74514cfa6a93aeb5ee92018b029bc8]
reverse link Ship to Destroyer--><path d="M356.148,136.333 C334.022,164.848 309.763,196.112 292.555,218.288 " fill="none" id="Ship&lt;-Destroyer" style="stroke: #A80036; stroke-width: 1.0;"/><polygon fill="none" points="350.719,131.912,368.51,120.403,361.779,140.495,350.719,131.912" style="stroke: #A80036; stroke-width: 1.0;"/><!--MD5=[de8d20ee7ba8dba86be795089067bb08]
reverse link Ship to Minesweeper--><path d="M411.5,140.73 C411.5,168.023 411.5,197.246 411.5,218.288 " fill="none" id="Ship&lt;-Minesweeper" style="stroke: #A80036; stroke-width: 1.0;"/><polygon fill="none" points="404.5,140.403,411.5,120.403,418.5,140.403,404.5,140.403" style="stroke: #A80036; stroke-width: 1.0;"/><!--MD5=[ae72b381997c45046d879f029657fd8d]
@startuml
class Game {
    +Player1: Player 
    +Player2: Player 
    -Turn: Int
    +StartGame()
    +QuitGame()
    +DisplayScore()
    -UpdateScore()
}

class Board {
    +BoardGrid: List
    +Fleet: Fleet [1]
    +PrintBoard()
    +UpdateBoard()
    +PlaceShips()
}

class Player {
    +Score: Int
    +Board: Board [1]
    +UpdateScore()
}

class Ship {
    -{static}SIZE: Int
    +Health: List
    +IsSunk: Bool
    +UpdateHealth()
    +SinkShip()
}

class Battleship {
    -{static}SIZE: int = 5 
}

class Destroyer {
    -{static}SIZE: int = 3 
}

class Minesweeper {
    -{static}SIZE: int = 2 
}

class Fleet {
    + Battleship: Battleship [1]
    + Destroyer: Destroyer [1]
    + Minesweeper: Minesweeper [2]
}

Player "2 "-down-* Game
Board -right-* Player
Fleet -right-* Board

Battleship - -* Fleet
Destroyer - -* Fleet
Minesweeper - -* Fleet

Battleship -up-|> Ship
Destroyer -up-|> Ship
Minesweeper -up-|> Ship
@enduml

PlantUML version 1.2020.02(Sun Mar 01 10:22:07 UTC 2020)
(GPL source distribution)
Java Runtime: Java(TM) SE Runtime Environment
JVM: Java HotSpot(TM) 64-Bit Server VM
Java Version: 1.7.0_25-b15
Operating System: Linux
Default Encoding: UTF-8
Language: en
Country: US
--></g></svg>